<?xml version="1.0" encoding="UTF-8" standalone="no"?>
<!-- Created with Inkscape (http://www.inkscape.org/) -->

<svg
   width="735.99994"
   height="174.53125"
   viewBox="0 0 194.73331 46.178062"
   version="1.1"
   id="svg2219"
   xmlns="http://www.w3.org/2000/svg"
   xmlns:svg="http://www.w3.org/2000/svg"
   xmlns:rdf="http://www.w3.org/1999/02/22-rdf-syntax-ns#"
   xmlns:cc="http://creativecommons.org/ns#"
   xmlns:dc="http://purl.org/dc/elements/1.1/">
  <defs
     id="defs2213">
    <clipPath
       clipPathUnits="userSpaceOnUse"
       id="clipPath931">
      <rect
         y="11.249973"
         x="1030.5166"
         height="285.75"
         width="285.75"
         id="rect933"
         style="opacity:1;fill:#ffffff;fill-opacity:1;stroke:none;stroke-width:3.96875;stroke-linecap:round;stroke-miterlimit:4;stroke-dasharray:none;stroke-opacity:1" />
    </clipPath>
    <rect
       x="357.57172"
       y="984"
       width="294.94916"
       height="237.53648"
       id="rect179-4" />
    <rect
       x="357.57172"
       y="984"
       width="294.94916"
       height="237.53648"
       id="rect203" />
    <rect
       x="357.57172"
       y="984"
       width="294.94916"
       height="237.53648"
       id="rect205" />
  </defs>
  <metadata
     id="metadata2216">
    <rdf:RDF>
      <cc:Work
         rdf:about="">
        <dc:format>image/svg+xml</dc:format>
        <dc:type
           rdf:resource="http://purl.org/dc/dcmitype/StillImage" />
      </cc:Work>
    </rdf:RDF>
  </metadata>
  <g
     id="layer3"
     transform="translate(-879.40599,-466.75661)">
    <path
       id="logo_horizontal_all_white"
       style="fill:#ffffff;fill-opacity:1;stroke:none;stroke-width:0.101841"
       d="m 893.19481,466.75661 a 24.301127,24.301127 0 0 0 -13.78882,21.8767 24.301127,24.301127 0 0 0 24.30032,24.30136 24.301127,24.301127 0 0 0 24.30136,-24.30136 24.301127,24.301127 0 0 0 -13.41675,-21.7196 22.155576,23.454198 0 0 1 11.27166,20.42098 22.155576,23.454198 0 0 1 -22.15627,23.45489 22.155576,23.454198 0 0 1 -22.15524,-23.45489 22.155576,23.454198 0 0 1 11.64374,-20.57808 z m 10.5115,5.71335 c -0.52661,-4e-5 -1.05289,0.12259 -1.45469,0.36845 -2.23228,1.36579 -4.46519,2.73135 -6.69727,4.09743 -0.80353,0.49177 -1.70263,1.61262 -2.00969,2.5032 l -2.61431,7.58145 a 4.9476397,4.9476397 0 0 0 0,3.22616 l 2.61431,7.58249 a 4.7481916,4.7481916 0 0 0 2.01124,2.5032 l 6.69572,4.09639 a 2.7882492,2.7882492 0 0 0 2.91042,0 l 6.69468,-4.09639 a 4.7486168,4.7486168 0 0 0 2.01125,-2.5032 l 2.61534,-7.58249 a 4.9470538,4.9470538 0 0 0 0,-3.22616 l -2.61379,-7.58145 a 4.7498966,4.7498966 0 0 0 -2.01177,-2.5032 l -6.69675,-4.09639 c -0.40175,-0.24588 -0.92806,-0.36944 -1.45469,-0.36949 z m 118.93899,1.22731 c -5.1123,-0.0952 -7.4851,6.08776 -2.4293,8.31578 2.8551,1.2582 4.2757,1.96266 4.2757,3.79873 0,2.33658 -4.5815,3.38167 -6.6451,-1.31206 v 4.04729 c 7.2999,2.84081 10.3176,-1.24508 9.2615,-5.18676 -1.0903,-4.06896 -7.8435,-3.86865 -6.935,-6.54534 0.8734,-2.57316 4.546,-1.62538 6.0838,0.84956 l -0.1167,-3.0055 c -1.2552,-0.65213 -2.4339,-0.94197 -3.4949,-0.9617 z m -84.34058,0.0972 v 15.60215 h 2.73058 v -6.86729 h 6.24096 v 6.86729 h 2.72128 0.009 v -15.60215 h -2.73058 v 6.86779 h -6.242 v -6.86779 z m 19.40708,0 -0.85214,2.45204 -4.56665,13.15011 h 1.56993 l 1.45159,-4.17959 h 4.70617 l 1.47227,4.17959 h 2.73988 l -5.22242,-14.82184 -0.27595,-0.78031 z m 8.80722,0 v 14.60479 c 0,1.82775 -0.0987,4.25332 -1.56218,4.86689 l 0.20877,0.39687 c 2.08857,-0.15774 4.08399,-3.3301 4.08399,-5.59397 v -14.27458 z m 10.43553,0 -0.85214,2.45204 -4.56665,13.15011 h 1.57045 l 1.45107,-4.17959 h 4.70669 l 1.47175,4.17959 h 2.7404 l -5.22242,-14.82184 -0.27595,-0.78031 z m 14.62805,0 v 0.001 c -0.0708,10e-4 -0.14244,7.9e-4 -0.21394,0.009 h -2.87476 -2.73161 v 15.59336 h 2.72231 0.009 v -7.3179 h 1.1157 c 0.12356,0.38361 2.60627,8.19005 8.88475,7.47965 v -0.48163 c -2.3395,-0.57814 -5.3499,-5.99679 -6.04927,-7.21299 1.93957,-0.4857 3.31267,-2.21195 3.34967,-4.21112 -0.1539,-2.21356 -2.01691,-3.89993 -4.21059,-3.85868 z m 17.5663,0 -0.8521,2.45204 -4.5666,13.15011 h 1.5704 l 1.4516,-4.17959 h 4.7062 l 1.4717,4.17959 h 2.7414 l -5.2234,-14.82184 -0.276,-0.78031 z m 19.0041,0 5.2224,14.82183 0.2759,0.78032 h 1.0227 l 0.8521,-2.4536 2.6903,-7.74527 3.3197,9.41855 0.2749,0.78032 h 1.0232 l 0.8517,-2.4536 4.5666,-13.14855 h -1.5699 l -3.7874,10.90527 -3.3187,-9.41803 -0.524,-1.48724 h -0.5296 l -1.0971,3.15898 -2.6903,7.74629 -3.8427,-10.90527 z m 24.1375,0 -0.8521,2.45204 -4.5657,13.15011 h 1.5695 l 1.451,-4.17959 h 4.7062 l 1.4733,4.17959 h 2.7404 l -5.224,-14.82184 -0.2744,-0.78031 z m 8.8082,0 v 1.49396 12.61319 1.495 h 1.4377 1.3901 1.6629 c 6.8364,0 8.5499,-4.31695 8.5499,-7.79023 0,-3.47324 -1.7135,-7.81192 -8.5499,-7.81192 h -1.6629 -1.032 z m -72.6048,1.33015 h 0.98961 c 1.72124,-0.009 3.1219,1.38247 3.129,3.10368 0,1.72837 -1.40064,3.12901 -3.129,3.12901 h -0.98961 z m 75.4326,0.16381 h 0.865 c 5.5569,0 6.3159,3.50792 6.3159,6.3159 0,2.80795 -0.759,6.30526 -6.3159,6.29729 h -0.865 z m -160.22019,0.0532 a 2.7878124,2.7878124 0 0 1 1.45469,0.40979 l 4.63848,2.83911 a 4.7493662,4.7493662 0 0 1 2.01125,2.50217 l 2.04483,5.92884 a 4.9466975,4.9466975 0 0 1 0,3.22512 l -2.04483,5.92884 a 4.749368,4.749368 0 0 1 -2.01125,2.50217 l -4.63848,2.83911 a 2.7878128,2.7878128 0 0 1 -2.90938,0 l -4.63951,-2.83911 a 4.7490469,4.7490469 0 0 1 -2.01021,-2.50217 l -2.04484,-5.92884 a 4.9473876,4.9473876 0 0 1 0,-3.22512 l 2.04484,-5.92884 a 4.7490451,4.7490451 0 0 1 2.01021,-2.50217 l 4.63951,-2.83911 a 2.7878124,2.7878124 0 0 1 1.45469,-0.40979 z m 53.944,3.14968 1.711,4.85862 h -3.39876 z m 19.24327,0 1.711,4.85862 h -3.39927 z m 32.19442,0 1.712,4.85862 h -3.3993 z m 43.141,0 1.7126,4.85862 h -3.3993 z m -148.52269,0.49196 a 2.787647,2.787647 0 0 0 -1.45469,0.40876 l -2.67891,1.63917 a 4.7495445,4.7495445 0 0 0 -2.01124,2.50373 l -1.202,3.48661 a 4.9470187,4.9470187 0 0 0 0,3.22512 l 1.202,3.48661 a 4.7495539,4.7495539 0 0 0 2.01124,2.50321 l 2.67891,1.63969 a 2.7876421,2.7876421 0 0 0 2.90938,0 l 2.67891,-1.63969 a 4.7492905,4.7492905 0 0 0 2.01125,-2.50321 l 1.20199,-3.48661 a 4.9470205,4.9470205 0 0 0 0,-3.22512 l -1.20199,-3.48661 a 4.7492811,4.7492811 0 0 0 -2.01125,-2.50373 l -2.67891,-1.63917 a 2.787647,2.787647 0 0 0 -1.45469,-0.40876 z m -10e-4,3.46594 c 0.24399,-4e-5 0.48804,0.0354 0.66714,0.10852 1.23834,0.50456 3.76876,2.08413 3.76876,6.56187 0,4.28861 -2.32042,5.90321 -3.60443,6.46834 -0.44273,0.19483 -1.21805,0.19461 -1.66036,0 -1.28371,-0.56484 -3.60495,-2.1789 -3.60495,-6.46834 0,-4.47667 2.52818,-6.05691 3.7667,-6.56187 0.17941,-0.0731 0.42313,-0.10829 0.66714,-0.10852 z m 1.42472,1.96887 c -0.004,6.7e-4 -0.007,0.001 -0.0114,0.004 -0.26354,0.20243 0.66232,1.16184 1.14773,2.43241 0.50237,1.31493 0.42442,2.49386 0.63666,2.53473 0.20779,0.04 0.70147,-1.21806 0.0749,-2.84737 -0.52467,-1.36404 -1.6837,-2.14176 -1.8464,-2.12339 z m 78.19367,11.03705 a 5.0362999,5.2703981 0 0 0 -5.0369,5.26945 5.0362999,5.2703981 0 0 0 5.0369,5.27099 5.0362999,5.2703981 0 0 0 5.03742,-5.27099 5.0362999,5.2703981 0 0 0 -5.03742,-5.26945 z m -14.35778,0.17932 v 5.1e-4 0.001 c -0.0474,9.1e-4 -0.0958,0.002 -0.14366,0.004 h -1.92236 -1.82624 v 10.17251 h 1.81952 0.007 v -4.63951 h 0.74621 c 0.0827,0.25655 1.74194,5.22303 5.9402,4.74803 v -0.32246 c -1.56434,-0.38654 -3.57652,-3.75549 -4.04419,-4.56872 1.29699,-0.32476 2.21489,-1.47802 2.23965,-2.81481 -0.103,-1.48015 -1.34896,-2.60829 -2.81585,-2.58072 z m -30.66117,5.1e-4 v 1.17668 9.00255 h 1.51257 0.31522 c 3.27934,0 5.086,-0.18159 5.086,-2.94401 0,-1.30347 -1.08064,-2.48487 -1.96061,-2.52543 0.96877,-0.34044 1.61646,-1.25467 1.61644,-2.28151 v -0.0202 c 1.5e-4,-1.32927 -1.07682,-2.40588 -2.40605,-2.40606 h -2.33578 -10e-4 z m 16.27446,0 -0.55656,1.60146 -2.97915,8.57777 h 1.02526 l 0.94672,-2.72697 h 3.07061 l 0.96067,2.72697 h 1.78697 l -3.40703,-9.6697 -0.18035,-0.50953 z m 40.25805,0 v 10.17923 h 1.821 0.01 v -4.40697 l 0.48,-0.44132 3.59784,4.84829 h 2.5967 l -4.81834,-6.11591 4.41424,-4.06332 h -1.7906 l -4.47984,4.35426 v -3.47059 -0.88367 z m 17.56684,0 -0.5555,1.60146 -2.9791,8.57777 h 1.0242 l 0.9467,-2.72697 h 3.0701 l 0.9607,2.72697 h 1.7885 l -3.4081,-9.6697 -0.1793,-0.50953 z m 10.6872,0 v 10.17923 h 1.7813 v -4.47983 h 4.0711 v 4.47983 h 1.7761 0.01 v -10.17923 h -1.7812 v 4.48138 h -4.0727 v -4.48138 z m -56.1914,0.89039 h 0.66198 c 1.15094,-0.004 2.08867,0.92489 2.09341,2.07584 0,1.15566 -0.93771,2.09238 -2.09341,2.09238 h -0.66198 z m 16.4238,0.21497 a 3.0592262,3.9852999 0 0 1 3.05977,3.98426 3.0592262,3.9852999 0 0 1 -3.05977,3.9858 3.0592262,3.9852999 0 0 1 -3.05872,-3.9858 3.0592262,3.9852999 0 0 1 3.05872,-3.98426 z m -43.19116,0.0713 h 1.27331 c 0.87866,1.1e-4 1.58999,0.7125 1.59008,1.59111 -0.0134,0.86768 -0.72235,1.56202 -1.59008,1.55391 l -1.27331,0.004 v -0.001 z m 14.40636,1.88774 1.11724,3.17086 h -2.21795 z m 57.826,0 1.1162,3.17086 h -2.2169 z m -72.23236,2.40192 h 1.02888 c 3.05038,-3e-5 3.03007,3.92431 0,3.92431 h -1.02888 v -3.85403 z" />
  </g>
</svg>
