<?xml version="1.0" encoding="UTF-8" standalone="no"?>
<!-- Created with Inkscape (http://www.inkscape.org/) -->

<svg
   width="736"
   height="174.53134"
   viewBox="0 0 194.73333 46.178086"
   version="1.1"
   id="svg2219"
   xmlns:xlink="http://www.w3.org/1999/xlink"
   xmlns="http://www.w3.org/2000/svg"
   xmlns:svg="http://www.w3.org/2000/svg"
   xmlns:rdf="http://www.w3.org/1999/02/22-rdf-syntax-ns#"
   xmlns:cc="http://creativecommons.org/ns#"
   xmlns:dc="http://purl.org/dc/elements/1.1/">
  <defs
     id="defs2213">
    <clipPath
       clipPathUnits="userSpaceOnUse"
       id="clipPath931">
      <rect
         y="11.249973"
         x="1030.5166"
         height="285.75"
         width="285.75"
         id="rect933"
         style="opacity:1;fill:#ffffff;fill-opacity:1;stroke:none;stroke-width:3.96875;stroke-linecap:round;stroke-miterlimit:4;stroke-dasharray:none;stroke-opacity:1" />
    </clipPath>
    <rect
       x="357.57172"
       y="984"
       width="294.94916"
       height="237.53648"
       id="rect179-4" />
    <rect
       x="357.57172"
       y="984"
       width="294.94916"
       height="237.53648"
       id="rect203" />
    <rect
       x="357.57172"
       y="984"
       width="294.94916"
       height="237.53648"
       id="rect205" />
    <linearGradient
       id="linearGradient32">
      <stop
         style="stop-color:#e4bd56;stop-opacity:1"
         offset="0"
         id="stop32" />
      <stop
         style="stop-color:#f7e193;stop-opacity:1"
         offset="1"
         id="stop33" />
    </linearGradient>
    <linearGradient
       xlink:href="#linearGradient32"
       id="linearGradient26"
       gradientUnits="userSpaceOnUse"
       gradientTransform="matrix(0.38203574,0,0,0.38203574,470.876,165.24653)"
       x1="335.44046"
       y1="207.59579"
       x2="366.00952"
       y2="207.59579" />
  </defs>
  <metadata
     id="metadata2216">
    <rdf:RDF>
      <cc:Work
         rdf:about="">
        <dc:format>image/svg+xml</dc:format>
        <dc:type
           rdf:resource="http://purl.org/dc/dcmitype/StillImage" />
      </cc:Work>
    </rdf:RDF>
  </metadata>
  <g
     id="layer3"
     transform="translate(-148.94886,-466.75683)">
    <g
       id="logo_horizontal_gold_black"
       transform="matrix(2.2343366,0,0,2.2343366,-1178.2238,-57.76542)">
      <path
         id="path18-6"
         style="fill:#000000;fill-opacity:1;stroke:none;stroke-width:0.04558"
         d="m 658.09781,237.86152 c -2.28806,-0.0426 -3.35005,2.72456 -1.08727,3.72173 1.27784,0.56312 1.91358,0.87841 1.91358,1.70016 0,1.04576 -2.0504,1.51368 -2.97398,-0.58705 v 1.81126 c 3.26716,1.27143 4.61767,-0.55716 4.14496,-2.3213 -0.48796,-1.82111 -3.5103,-1.73156 -3.10368,-2.92954 0.39089,-1.15165 2.03457,-0.72735 2.72283,0.38034 l -0.0522,-1.34514 c -0.56174,-0.29187 -1.08937,-0.42163 -1.56425,-0.43046 z m -37.74757,0.0434 v 6.98304 h 1.22215 v -3.07371 h 2.79311 v 3.07371 h 1.21802 0.004 v -6.98304 h -1.22215 v 3.07372 h -2.79363 v -3.07372 z m 8.68578,0 -0.38137,1.09761 -2.04381,5.88543 h 0.7028 l 0.64957,-1.87069 h 2.10634 l 0.65887,1.87069 h 1.22628 l -2.33732,-6.6337 -0.12351,-0.34934 z m 3.94188,0 v 6.53656 c 0,0.81803 -0.0442,1.90355 -0.69919,2.17816 l 0.0935,0.17776 c 0.93476,-0.0706 1.82779,-1.4905 1.82779,-2.50372 v -6.38876 z m 4.67051,0 -0.38137,1.09761 -2.0438,5.88543 h 0.7028 l 0.64957,-1.87069 h 2.10633 l 0.65887,1.87069 h 1.22629 l -2.33733,-6.6337 -0.1235,-0.34934 z m 6.54689,0 v 5.2e-4 c -0.0317,5.8e-4 -0.0636,6.2e-4 -0.0956,0.004 h -1.28675 -1.22266 v 6.9789 h 1.21853 0.004 v -3.27525 h 0.49919 c 0.0553,0.17169 1.16651,3.66555 3.9765,3.3476 v -0.21549 c -1.04706,-0.25875 -2.39431,-2.6839 -2.70732,-3.22823 0.86809,-0.21738 1.48256,-0.98989 1.49913,-1.88464 -0.0689,-0.9907 -0.90283,-1.74549 -1.88464,-1.72703 z m 7.86205,0 -0.38137,1.09761 -2.0438,5.88543 h 0.7028 l 0.64957,-1.87069 h 2.10633 l 0.65887,1.87069 h 1.2268 l -2.33784,-6.6337 -0.12351,-0.34934 z m 8.50543,0 2.33732,6.63371 0.12351,0.34933 h 0.45785 l 0.38137,-1.09812 1.20406,-3.46646 1.4857,4.21525 0.12299,0.34933 h 0.45785 l 0.38138,-1.09812 2.0438,-5.88492 h -0.7028 l -1.69499,4.88084 -1.48518,-4.21524 -0.23461,-0.6656 h -0.23719 l -0.49093,1.41387 -1.20406,3.46697 -1.71979,-4.88084 z m 10.80295,0 -0.38137,1.09761 -2.04328,5.88543 h 0.70228 l 0.64957,-1.87069 h 2.10633 l 0.65939,1.87069 h 1.22629 l -2.33785,-6.6337 -0.12299,-0.34934 z m 3.9424,0 v 0.6687 5.64513 0.66921 h 0.64337 0.62218 0.74415 c 3.05968,0 3.82663,-1.93211 3.82663,-3.48661 0,-1.55449 -0.76695,-3.49643 -3.82663,-3.49643 h -0.74415 -0.46198 z m -32.49518,0.59532 h 0.44287 c 0.77036,-0.004 1.39725,0.61871 1.40043,1.38906 0,0.77355 -0.62688,1.40043 -1.40043,1.40043 h -0.44287 z m 33.76073,0.0734 h 0.38706 c 2.48701,0 2.8267,1.56996 2.8267,2.8267 0,1.25673 -0.33969,2.822 -2.8267,2.81843 h -0.38706 z m -47.56505,1.4335 0.76584,2.17455 h -1.52135 z m 8.61239,0 0.76585,2.17455 h -1.52136 z m 14.40894,0 0.76636,2.17455 h -1.52135 z m 19.30839,0 0.76636,2.17455 h -1.52136 z m -30.83947,7.5923 a 2.2540471,2.3588201 0 0 0 -2.25412,2.35851 2.2540471,2.3588201 0 0 0 2.25412,2.35903 2.2540471,2.3588201 0 0 0 2.25465,-2.35903 2.2540471,2.3588201 0 0 0 -2.25465,-2.35851 z m -20.14864,0.0806 v 0.52658 4.02921 h 0.67696 0.14108 c 1.4677,0 2.27635,-0.0814 2.27635,-1.31775 0,-0.58338 -0.48363,-1.11201 -0.87747,-1.13016 0.43358,-0.15237 0.72348,-0.56156 0.72347,-1.02113 v -0.009 c 7e-5,-0.59493 -0.48202,-1.07686 -1.07693,-1.07694 h -1.04542 -5.2e-4 z m 7.2838,0 -0.24908,0.71675 -1.33326,3.83904 h 0.45889 l 0.42375,-1.2206 h 1.37407 l 0.42995,1.2206 h 0.79995 l -1.52497,-4.3279 -0.0806,-0.22789 z m 6.43888,0 v 5.1e-4 c -0.0212,4.1e-4 -0.0427,10e-4 -0.0641,0.002 h -0.86041 -0.81752 v 4.5527 h 0.81442 0.003 v -2.07636 h 0.33383 c 0.037,0.11482 0.77977,2.33752 2.65875,2.12493 v -0.14418 c -0.70014,-0.173 -1.60092,-1.68086 -1.81023,-2.04483 0.58048,-0.14535 0.99145,-0.66158 1.00253,-1.25987 -0.0461,-0.66246 -0.60387,-1.16731 -1.26039,-1.15497 z m 11.57914,0 v 4.55579 h 0.81494 0.003 v -1.97249 l 0.21497,-0.1974 1.61024,2.16989 h 1.1622 l -2.15646,-2.7373 1.97559,-1.81849 h -0.8015 l -2.00504,1.94872 v -1.5534 -0.39532 z m 7.86205,0 -0.24856,0.71675 -1.33326,3.83904 h 0.45837 l 0.42375,-1.2206 h 1.37408 l 0.42995,1.2206 h 0.80046 l -1.52548,-4.3279 -0.0801,-0.22789 z m 4.78317,0 v 4.55579 h 0.79737 v -2.00504 h 1.82211 v 2.00504 h 0.79478 0.003 v -4.55579 h -0.79736 v 2.00556 h -1.82263 v -2.00556 z m -25.14885,0.39842 h 0.2961 c 0.51512,-0.002 0.93478,0.41403 0.9369,0.92915 0,0.51723 -0.41965,0.93637 -0.9369,0.93637 h -0.2961 z m 7.35045,0.0961 a 1.3691877,1.7836614 0 0 1 1.36943,1.78335 1.3691877,1.7836614 0 0 1 -1.36943,1.78388 1.3691877,1.7836614 0 0 1 -1.3689,-1.78388 1.3691877,1.7836614 0 0 1 1.3689,-1.78335 z m -19.3306,0.032 h 0.56999 c 0.39325,5e-5 0.71155,0.31887 0.71159,0.7121 -0.006,0.38834 -0.32323,0.6992 -0.71159,0.69557 l -0.56999,0.002 v -5.1e-4 z m 6.44767,0.84491 0.50023,1.41904 h -0.99271 z m 25.88059,0 0.49971,1.41904 h -0.99219 z m -32.32826,1.07487 h 0.46044 c 1.36523,-1e-5 1.35614,1.75648 0,1.75648 h -0.46044 v -1.72496 z" />
      <path
         id="path19-5"
         style="color:#000000;fill:url(#linearGradient26);stroke-width:0.382036;stroke-linecap:square;-inkscape-stroke:none;paint-order:stroke fill markers"
         d="m 600.16078,234.75525 a 10.876216,10.876216 0 0 0 -6.1712,9.79113 10.876216,10.876216 0 0 0 10.87582,10.87634 10.876216,10.876216 0 0 0 10.87634,-10.87634 10.876216,10.876216 0 0 0 -6.0048,-9.72085 9.9159527,10.497164 0 0 1 5.04465,9.13949 9.9159527,10.497164 0 0 1 -9.91619,10.49755 9.9159527,10.497164 0 0 1 -9.91567,-10.49755 9.9159527,10.497164 0 0 1 5.21105,-9.20977 z m 4.70462,2.55695 c -0.23569,-2e-5 -0.47129,0.0548 -0.65112,0.16484 -0.99908,0.61127 -1.99825,1.2226 -2.99724,1.834 -0.35963,0.2201 -0.76225,0.72175 -0.89968,1.12034 l -1.16996,3.39308 a 2.2143663,2.2143663 0 0 0 0,1.44384 l 1.16996,3.39359 a 2.1251013,2.1251013 0 0 0 0.9002,1.12035 l 2.99672,1.83347 a 1.2479092,1.2479092 0 0 0 1.30276,0 l 2.9962,-1.83347 a 2.1252916,2.1252916 0 0 0 0.9002,-1.12035 l 1.17047,-3.39359 a 2.2141041,2.2141041 0 0 0 0,-1.44384 l -1.16995,-3.39308 a 2.1258644,2.1258644 0 0 0 -0.9002,-1.12034 l -2.99724,-1.83348 c -0.17981,-0.11005 -0.41542,-0.16534 -0.65112,-0.16536 z m 0,1.28519 a 1.2477137,1.2477137 0 0 1 0.65112,0.18345 l 2.07585,1.27072 a 2.125627,2.125627 0 0 1 0.9002,1.11983 l 0.91519,2.65359 a 2.2139446,2.2139446 0 0 1 0,1.44332 l -0.91519,2.65358 a 2.1256278,2.1256278 0 0 1 -0.9002,1.11983 l -2.07585,1.27073 a 1.2477139,1.2477139 0 0 1 -1.30224,0 l -2.07636,-1.27073 a 2.1254841,2.1254841 0 0 1 -0.89969,-1.11983 l -0.91519,-2.65358 a 2.2142535,2.2142535 0 0 1 0,-1.44332 l 0.91519,-2.65359 a 2.1254833,2.1254833 0 0 1 0.89969,-1.11983 l 2.07636,-1.27072 a 1.2477137,1.2477137 0 0 1 0.65112,-0.18345 z m 0,1.62987 a 1.2476397,1.2476397 0 0 0 -0.65112,0.18294 l -1.1989,0.7338 a 2.1257068,2.1257068 0 0 0 -0.9002,1.12035 l -0.53795,1.56063 a 2.2140884,2.2140884 0 0 0 0,1.44332 l 0.53795,1.56063 a 2.125711,2.125711 0 0 0 0.9002,1.12034 l 1.1989,0.73381 a 1.2476375,1.2476375 0 0 0 1.30224,0 l 1.1989,-0.73381 a 2.1255931,2.1255931 0 0 0 0.9002,-1.12034 l 0.53795,-1.56063 a 2.2140892,2.2140892 0 0 0 0,-1.44332 l -0.53795,-1.56063 a 2.1255889,2.1255889 0 0 0 -0.9002,-1.12035 l -1.1989,-0.7338 a 1.2476397,1.2476397 0 0 0 -0.65112,-0.18294 z m -5.2e-4,1.55133 c 0.1092,-2e-5 0.21853,0.0159 0.29869,0.0486 0.55423,0.22582 1.68672,0.93271 1.68672,2.93677 0,1.91941 -1.03867,2.64198 -1.61334,2.89491 -0.19815,0.0872 -0.54514,0.0871 -0.7431,0 -0.57454,-0.2528 -1.61334,-0.97513 -1.61334,-2.89491 0,-2.00358 1.13137,-2.71077 1.68568,-2.93677 0.0803,-0.0327 0.18948,-0.0485 0.29869,-0.0486 z m 0.63769,0.88108 c -0.002,3e-4 -0.003,4.2e-4 -0.005,0.002 -0.11795,0.0906 0.29642,0.52017 0.51367,1.08883 0.22484,0.58851 0.18974,1.116 0.28473,1.13429 0.093,0.0179 0.31403,-0.54513 0.0336,-1.27434 -0.23482,-0.61049 -0.75348,-0.95855 -0.8263,-0.95033 z" />
    </g>
  </g>
</svg>
