<?xml version="1.0" encoding="UTF-8" standalone="no"?>
<!-- Created with Inkscape (http://www.inkscape.org/) -->

<svg
   width="335.81277"
   height="319.06873"
   viewBox="0 0 88.85046 84.42027"
   version="1.1"
   id="svg2219"
   xmlns:xlink="http://www.w3.org/1999/xlink"
   xmlns="http://www.w3.org/2000/svg"
   xmlns:svg="http://www.w3.org/2000/svg"
   xmlns:rdf="http://www.w3.org/1999/02/22-rdf-syntax-ns#"
   xmlns:cc="http://creativecommons.org/ns#"
   xmlns:dc="http://purl.org/dc/elements/1.1/">
  <defs
     id="defs2213">
    <clipPath
       clipPathUnits="userSpaceOnUse"
       id="clipPath931">
      <rect
         y="11.249973"
         x="1030.5166"
         height="285.75"
         width="285.75"
         id="rect933"
         style="opacity:1;fill:#ffffff;fill-opacity:1;stroke:none;stroke-width:3.96875;stroke-linecap:round;stroke-miterlimit:4;stroke-dasharray:none;stroke-opacity:1" />
    </clipPath>
    <rect
       x="357.57172"
       y="984"
       width="294.94916"
       height="237.53648"
       id="rect179-4" />
    <rect
       x="357.57172"
       y="984"
       width="294.94916"
       height="237.53648"
       id="rect203" />
    <rect
       x="357.57172"
       y="984"
       width="294.94916"
       height="237.53648"
       id="rect205" />
    <linearGradient
       id="linearGradient32">
      <stop
         style="stop-color:#e4bd56;stop-opacity:1"
         offset="0"
         id="stop32" />
      <stop
         style="stop-color:#f7e193;stop-opacity:1"
         offset="1"
         id="stop33" />
    </linearGradient>
    <linearGradient
       xlink:href="#linearGradient32"
       id="linearGradient12-0"
       gradientUnits="userSpaceOnUse"
       gradientTransform="matrix(1.560477,0,0,1.560477,-274.4776,269.92616)"
       x1="335.44046"
       y1="207.59579"
       x2="366.00952"
       y2="207.59579" />
  </defs>
  <metadata
     id="metadata2216">
    <rdf:RDF>
      <cc:Work
         rdf:about="">
        <dc:format>image/svg+xml</dc:format>
        <dc:type
           rdf:resource="http://purl.org/dc/dcmitype/StillImage" />
      </cc:Work>
    </rdf:RDF>
  </metadata>
  <g
     id="layer3"
     transform="translate(-228.39484,-553.84276)">
    <path
       id="logo_icon_gold"
       style="color:#000000;fill:url(#linearGradient12-0);stroke-width:1.56047;stroke-linecap:square;-inkscape-stroke:none;paint-order:stroke fill markers"
       d="m 253.60346,553.84276 a 44.42538,44.42538 0 0 0 -25.20862,39.9941 44.42538,44.42538 0 0 0 44.42621,44.42617 44.42538,44.42538 0 0 0 44.42425,-44.42617 44.42538,44.42538 0 0 0 -24.52514,-39.70417 40.503057,42.877095 0 0 1 20.60329,37.32998 40.503057,42.877095 0 0 1 -40.5024,42.87853 40.503057,42.877095 0 0 1 -40.50247,-42.87853 40.503057,42.877095 0 0 1 21.28488,-37.61991 z m 19.21759,10.44568 c -0.96274,-7e-5 -1.92587,0.22481 -2.66038,0.67404 -4.08087,2.49683 -8.16135,4.99427 -12.24185,7.49162 -1.46895,0.899 -3.11385,2.94701 -3.67522,4.57513 l -4.78038,13.85921 a 9.04488,9.04488 0 0 0 0,5.89685 l 4.78038,13.86296 a 8.6802647,8.6802647 0 0 0 3.67522,4.57517 l 12.24185,7.48782 a 5.0972547,5.0972547 0 0 0 5.32073,0 l 12.23999,-7.48782 a 8.6810422,8.6810422 0 0 0 3.67705,-4.57517 l 4.78036,-13.86296 a 9.0438088,9.0438088 0 0 0 -0.001,-5.89685 l -4.77851,-13.85921 a 8.6833816,8.6833816 0 0 0 -3.67704,-4.57513 l -12.24185,-7.49162 c -0.73448,-0.44949 -1.69579,-0.67396 -2.6585,-0.67404 z m -0.001,5.24921 a 5.096456,5.096456 0 0 1 2.66038,0.74935 l 8.48003,5.18893 a 8.682412,8.682412 0 0 1 3.67708,4.57517 l 3.7373,10.83919 a 9.0431574,9.0431574 0 0 1 0,5.8969 l -3.7373,10.83731 a 8.6824154,8.6824154 0 0 1 -3.67708,4.57515 l -8.48003,5.18895 a 5.0964568,5.0964568 0 0 1 -5.32076,0 l -8.47818,-5.18895 a 8.6818285,8.6818285 0 0 1 -3.67708,-4.57515 l -3.73734,-10.83731 a 9.0444191,9.0444191 0 0 1 0,-5.8969 l 3.73734,-10.83919 a 8.6818251,8.6818251 0 0 1 3.67708,-4.57517 l 8.47818,-5.18893 a 5.096456,5.096456 0 0 1 2.66038,-0.74935 z m 0,6.65564 a 5.0961537,5.0961537 0 0 0 -2.6585,0.74934 l -4.89713,2.99739 a 8.6827382,8.6827382 0 0 0 -3.67519,4.57518 l -2.1972,6.37509 a 9.0437448,9.0437448 0 0 0 0,5.8969 l 2.1972,6.37323 a 8.6827553,8.6827553 0 0 0 3.67519,4.57514 l 4.89713,2.9974 a 5.0961449,5.0961449 0 0 0 5.31888,0 l 4.8971,-2.9974 a 8.6822741,8.6822741 0 0 0 3.67708,-4.57514 l 2.19722,-6.37323 a 9.043748,9.043748 0 0 0 0,-5.8969 l -2.19722,-6.37509 a 8.6822568,8.6822568 0 0 0 -3.67708,-4.57518 l -4.8971,-2.99739 a 5.0961537,5.0961537 0 0 0 -2.66038,-0.74934 z m 0,6.33745 c 0.44606,-1.1e-4 0.8926,0.0659 1.22003,0.19966 2.26379,0.92244 6.88911,3.80934 6.88911,11.9952 0,7.84011 -4.24244,10.79076 -6.58974,11.82388 -0.80939,0.35632 -2.22648,0.35779 -3.03506,10e-4 -2.34679,-1.03261 -6.59163,-3.98415 -6.59163,-11.82577 0,-8.18391 4.62308,-11.07204 6.88726,-11.99521 0.32789,-0.13373 0.77395,-0.19965 1.22003,-0.19965 z m 2.60765,3.59801 -0.001,10e-4 c -0.0102,0.001 -0.0183,0.001 -0.0219,0.007 -0.48176,0.37006 1.21002,2.1244 2.09741,4.44715 0.91835,2.40389 0.77553,4.55882 1.16356,4.63354 0.37992,0.0732 1.28294,-2.2274 0.13738,-5.20592 -0.96043,-2.49684 -3.0827,-3.91969 -3.37584,-3.88228 z" />
  </g>
</svg>
